<svg id="Layer_1" xmlns="http://www.w3.org/2000/svg" viewBox="0 0 370 70"><style>.st0{fill:#f9d010}</style><path class="st0" d="M211.5 52.4s.1.4.9.9c0 0-.9-.3-1.2-.7 0 0 .1 1.3 2.4 1.4.1 0-1-1.9-2.1-1.6z"/><path class="st0" d="M209.6 51.8s.1.4.8 1c0 0-.8-.4-1-.9 0 0-.1 1.3 2.2 1.8-.1 0-.9-2-2-1.9zM217.8 55.2s-.4-1.8-1.5-1.9c0 0 0 .4.6 1.1 0 0-.7-.6-.9-1 0 0-.3 1.1 1.6 1.9 2.9 1.4 3.5 1.3 3.5 1.3s-3.1-1-3.3-1.4zM161.9 52.5c.7-.6.7-1 .7-1-1.2-.1-1.9 2-1.9 2 2.3-.5 2.1-1.8 2.1-1.8-.2.4-.9.8-.9.8zM153.4 54.4c.6-.7.6-1.1.6-1.1-1.2 0-1.5 1.9-1.5 1.9-.3.5-3.4 1.5-3.4 1.5s.6.1 3.5-1.3c1.8-.9 1.6-1.9 1.6-1.9-.1.3-.8.9-.8.9zM165.5 51.2c-.3.4-1.2.6-1.2.6.8-.4 1-.8 1-.8-1.1-.4-2.3 1.5-2.3 1.5 2.4 0 2.5-1.3 2.5-1.3zM213.8 52.8s.1.4.8 1c0 0-.8-.4-1-.9 0 0-.1 1.3 2.2 1.7 0 .1-.8-1.9-2-1.8zM156.6 52.9c-.2.4-1 .9-1 .9.7-.6.8-1 .8-1-1.2-.2-2 1.9-2 1.9 2.4-.4 2.2-1.8 2.2-1.8zM157.8 53.3c.8-.4.9-.9.9-.9-1.1-.3-2.2 1.6-2.2 1.6 2.4-.1 2.4-1.4 2.4-1.4-.2.4-1.1.7-1.1.7zM204.7 51.7s-.6-1.2-1.8-.6c0 0 .3-.1.7.5 0 0 .4.8.9.7.4 0 1-.1 1-.1s-.5.1-.8-.5zM206.2 50.9c.4-.3 1.3-.3 1.3-.3-.9.2-1.2.5-1.2.5.9.6 2.6-.8 2.6-.8-2.2-.7-2.7.6-2.7.6zM208.6 51.2c.4-.3 1.3-.3 1.3-.3-.9.2-1.2.6-1.2.6.9.6 2.6-.9 2.6-.9-2.2-.7-2.7.6-2.7.6z"/><path class="st0" d="M152.2 54.4s-.9.2-1.1.3c.2-.1.9-.6 1-.6 0 0-1.1-.3-2 .8 0 0-2 1.3-2.3 1.7 0 0 1.9-1.2 2.4-1.3 0 .1 1.4.6 2-.9zM207.6 51.5s0 .4.7 1c0 0-.8-.5-1-.9 0 0-.2 1.3 2.1 1.8.2.1-.6-2-1.8-1.9zM204.2 50.3c-.4.6-.8.4-.8.4 1.1.8 1.9-.2 1.9-.2.5-.6.9-.4.9-.4s-.6-.2-1-.3c-.5-.2-1 .5-1 .5zM165.5 51.7c-.3.6-.9.6-.9.6s.6.1 1 .1c.6 0 .9-.7.9-.7.3-.6.7-.5.7-.5-1.1-.6-1.7.5-1.7.5zM217.6 52.2c-2.1-1-2.8.2-2.8.2.4-.2 1.3-.1 1.3-.1-.9 0-1.2.3-1.2.3.8.8 2.7-.4 2.7-.4zM204.9 51s.2.4 1 .8c0 0-.9-.3-1.2-.6 0 0 .2 1.3 2.5 1.3.1-.1-1.2-1.9-2.3-1.5zM210.8 51.8c.3-.3 1.3-.4 1.3-.4-.9.3-1.1.6-1.1.6 1 .6 2.6-1 2.6-1-2.4-.4-2.8.8-2.8.8z"/><path class="st0" d="M212.9 52.1c.3-.3 1.3-.4 1.3-.4-.9.3-1.1.6-1.1.6 1 .6 2.6-1 2.6-1-2.4-.4-2.8.8-2.8.8zM160.9 52c-.2.4-1 .9-1 .9.7-.6.8-1 .8-1-1.2-.2-2 1.9-2 1.9 2.3-.5 2.2-1.8 2.2-1.8zM151.6 18.6s-.3-.4-1.5-.6c0 0 1.2 0 1.6.3 0 0-.7-1.5-3.5-.6.1.1 2.3 1.8 3.4.9zM144.1 20.7s-.4-.4-1.5-.3c0 0 1.1-.3 1.7 0 0 0-.9-1.4-3.5 0-.1 0 2.4 1.3 3.3.3zM151 19.4c-.2.6-1.2 1.2-1.2 1.2.9-.8.9-1.3.9-1.3-1.5-.1-2.3 2.6-2.3 2.6 2.9-.9 2.6-2.5 2.6-2.5z"/><path class="st0" d="M146.4 20.2s-.3-.4-1.5-.6c0 0 1.2 0 1.6.3 0 0-.6-1.5-3.5-.7.1 0 2.2 1.8 3.4 1z"/><path class="st0" d="M149 19.7s-.3-.4-1.5-.6c0 0 1.2 0 1.6.3 0 0-.6-1.6-3.5-.7.1 0 2.2 1.8 3.4 1zM153.3 18.8c-.2.6-1.1 1.2-1.1 1.2.8-.8.9-1.3.9-1.3-1.5 0-2.2 2.6-2.2 2.6 2.8-.8 2.4-2.5 2.4-2.5zM154.6 18.1s-.3-.4-1.5-.6c0 0 1.2-.1 1.6.3 0 0-.7-1.5-3.5-.5.1 0 2.3 1.7 3.4.8zM155.8 17.2s1.1 1.2 2.3.1c0 0-.4.3-1-.4 0 0-.7-.8-1.4-.6-.5.2-1.2.5-1.2.5s.7-.2 1.3.4z"/><path class="st0" d="M148.6 20.3c-.3.5-1.4.9-1.4.9 1-.6 1.1-1.2 1.1-1.2-1.4-.3-2.6 2.1-2.6 2.1 2.9-.1 2.9-1.8 2.9-1.8z"/><path class="st0" d="M145.5 20.9c-1.5-.1-2.3 2.6-2.3 2.6 2.8-.8 2.6-2.5 2.6-2.5-.2.6-1.2 1.2-1.2 1.2.8-.8.9-1.3.9-1.3zM142.8 21.7c-.1.6-1 1.3-1 1.3.7-.8.6-1.3.6-1.3-1.5.1-1.7 2.5-1.7 2.5-.2.6-4 2-4 2s.8 0 4.3-1.9c2.2-1.2 1.8-2.6 1.8-2.6zM154.6 51.4s1.6 1.6 2.6 1c0 0-.2-.4-1.1-.6 0 0 .9.1 1.3.4 0-.1-.4-1.3-2.8-.8z"/><path class="st0" d="M156.7 51.1s1.6 1.6 2.6 1c0 0-.2-.4-1.1-.6 0 0 .9.1 1.3.4 0-.1-.4-1.3-2.8-.8zM152.7 52.2s1.9 1.2 2.7.4c0 0-.3-.3-1.2-.3 0 0 .9-.1 1.3.1 0 0-.7-1.2-2.8-.2zM158.9 50.5s1.6 1.5 2.6.9c0 0-.3-.3-1.2-.6 0 0 .9 0 1.3.3 0 .1-.4-1.2-2.7-.6zM140.3 23.2s-1 .3-1.3.5c.2-.2 1-.8 1.2-.8 0 0-1.4-.3-2.4 1.2 0 0-2.4 1.7-2.8 2.3 0 0 2.3-1.7 2.9-1.8 0 0 1.8.6 2.4-1.4zM150.8 53c-2.9 1.4-3.2 1.9-3.2 1.9s2.7-1.7 3.2-1.7c0 0 1.7.9 2.4 0 0 0-.3-.3-1.2-.2 0 0 .9-.3 1.3-.1-.1.1-.7-.7-2.5.1zM138.4 21.9s2.1 1 3-.2c0 0-.4-.3-1.6-.2 0 0 1.1-.4 1.6-.2 0 0-.9-1.1-3.1.2-3.5 2-3.8 2.7-3.8 2.7s3.3-2.4 3.9-2.3zM164.9 50.5s.8 1 1.9.2c0 0-.3.2-.8-.4 0 0-.5-.7-1.1-.5-.4.1-1 .3-1 .3s.6-.1 1 .4zM161.3 50.3s1.7 1.5 2.6.8c0 0-.3-.3-1.2-.5 0 0 .9 0 1.3.3 0 0-.5-1.3-2.7-.6zM181.9 43.6h-.9v3.2h.9c.9 0 1.2-.5 1.2-1.6.1-1.2-.3-1.6-1.2-1.6zm.1 2.8h-.4v-2.3h.4c.5 0 .6.3.7 1.1-.1.9-.2 1.2-.7 1.2zM179.3 45c-.3-.1-.5-.2-.5-.5s.2-.4.4-.4.4 0 .6.2l.2-.4c-.3-.1-.5-.2-.8-.2-.6 0-.9.3-.9.9 0 .6.3.8.9.9.3.1.5.2.6.5 0 .3-.2.5-.5.5s-.5-.1-.8-.3l-.2.4c.3.2.6.3 1 .3.8 0 1-.5 1-1-.1-.6-.5-.8-1-.9zM158.1 18.5c.3-.9.8-.7.8-.7-1.6-.6-2.2.9-2.2.9-.4.8-1 .8-1 .8s.7 0 1.3.1c.7-.1 1.1-1.1 1.1-1.1zM176.5 46.5l-.1-.9.9-.1V45l-.9.1v-.8l1.1-.1-.1-.5-1.6.1.1 3.3 1.7-.1v-.5zM189.6 44.8c0-.6-.4-.9-.9-.9-.4 0-.7.1-.9.3l.2.4c.2-.1.4-.2.7-.2s.4.2.4.5c0 .4-.3.7-1.3 1.6v.5h1.9v-.5h-1.3c.9-.8 1.2-1.2 1.2-1.7zM159.1 34c.9-.6 1.1-1.2.9-2.3-.3-1.7-1.5-2.2-2.8-1.9l-3.9.7 1.7 9.4 3.6-.7c2.1-.4 2.8-1.5 2.4-3.4-.1-1.2-1-1.7-1.9-1.8zm-3.1-1.9l.8-.1c.5-.1.9.1.9.7.1.6-.1.9-.6 1.1l-.7.1-.4-1.8zm1.9 5.4l-.9.2-.4-2 .8-.2c.7-.1.9.3 1.1.8.2.7-.1 1.1-.6 1.2zM164.9 36.3l-.3-1.9 2.2-.3-.2-1.9-2.2.2-.2-1.6 2.8-.3-.3-2-5.2.6 1.3 9.5 5.4-.7-.3-2zM194.6 44.1l-.4-.1-.9.7.2.3.5-.2-.1 1.8-.6-.1v.5l1.7.1v-.4l-.5-.1zM174.5 35.4l-3 .2-.2-1.9 2.2-.2-.1-2-2.2.2-.2-1.6 2.8-.2-.1-2-5.2.4.7 9.5 5.5-.4zM178.2 37.2l-.1-3.8h.2c.8 0 .9.2 1.2 1l.7 2.7 2.6-.1-.8-2.5c-.3-.9-.6-1.6-1.3-1.7 1-.3 1.6-.9 1.6-2.5-.1-1.7-.9-2.7-3.7-2.6l-3.1.1.3 9.6 2.4-.2zm.6-7.6c.6 0 .9.2.9.9 0 .8-.2 1.1-.8 1.1h-.9l-.1-2h.9zM173.6 43.9l-.9.1.2 3.2.9-.1c.9-.1 1.2-.6 1.2-1.7 0-1.2-.5-1.5-1.4-1.5zm.2 2.8h-.4l-.1-2.3h.4c.5 0 .7.2.7 1.1 0 .9-.1 1.2-.6 1.2zM184.6 46.3v-.9h.9v-.5h-.9v-.8h1.1v-.5H184v3.2h1.8v-.5z"/><path class="st0" d="M208.8 20.2l1-4.7c-8.6-2-16.7-2.5-24.6-2.5s-16.2.5-24.7 2.5l1 4.7c-6.6 1.1-12.7 2.7-18.4 4.8l-2.2.8.6 2.2 6.2 21.2.7 2.3 2.3-.6c5.2-1.5 11.1-2.5 17.5-3.1l.7 3.2h.5c5-.4 9.9-.7 15.5-.7 5.8 0 10.7.3 15.8.7h.5l.7-3.2c6.4.6 12.2 1.7 17.5 3.1l2.3.6.7-2.3 6.4-21.2.6-2.2-2.2-.8c-5.7-2.1-11.9-3.7-18.4-4.8zm-4.7-1.1c.2.2.5.3.7.3.3 0 .4-.1.5-.3.1-.2-.1-.3-.3-.4-.6-.3-.9-.5-.8-1.2.1-.7.6-.9 1.2-.9.4.1.7.2.9.3l-.4.6c-.2-.2-.3-.2-.6-.2-.2 0-.3.1-.4.2 0 .2 0 .3.3.4.5.2 1 .5.9 1.2-.1.7-.5 1.1-1.4.9-.5-.1-.9-.3-1.1-.4l.5-.5zm-2-2.7l.9.1.5 3.5-1-.2v-.6l-.6-.1-.2.6-.9-.1 1.3-3.2zm-2.6 2.5l.3-2.8.9.1-.3 3.1c-.1.6-.4 1-1 1.1l-.3-.6c.4-.2.4-.3.4-.9zm-2.2-3l1.8.2-.1.7-1-.1v.6l.8.1-.1.6-.8-.1-.1.7 1.1.1-.1.7-1.9-.2.4-3.3zm-2.4-.2l.3 1.5c0 .2.1.4.1.6.1-.2.1-.4.2-.6l.5-1.5.9.1-1.2 3.3h-.7l-.8-3.4h.7zm-3.6-.1h1.1c.9 0 1.2.4 1.2 1s-.3.8-.6.9c.3.1.3.3.4.6l.2.9h-.9l-.2-1c-.1-.3-.1-.4-.4-.4h-.1l-.1 1.4h-.9l.3-3.4zm-2.6-.1h1.8v.7h-1v.6h.8v.7h-.8v.7h1.1v.7h-1.9v-3.4zm-1.4-.1c.4 0 .7.1.9.3l-.3.6c-.2-.1-.3-.2-.5-.2-.4 0-.5.1-.5 1s.2 1.1.5 1.1.4-.1.6-.2l.3.6c-.2.2-.5.3-.9.3-.9 0-1.4-.5-1.4-1.7-.1-1.4.4-1.8 1.3-1.8zm-3.2.1v.7h-1v.6h.8v.7h-.8v.7h1.1v.7h-1.9v-3.4h1.8zm-3.8.1c.8 0 1.3.4 1.4 1.6 0 1-.2 1.7-1.2 1.8h-1.2l-.1-3.4h1.1zm-3 .1v.7l-1 .1v.6h.8v.7h-.8v.7l1.2-.2v.7l-1.9.1-.2-3.4h1.9zm-3.5.2c.5 0 .9.2.9.8 0 .4-.1.6-.4.8.3 0 .6.3.6.7 0 .7-.2 1-1 1.1l-1.3.1-.2-3.4 1.4-.1zm-3.6.3l.2 2.3c0 .3.1.3.3.3s.3 0 .3-.1l-.3-2.6.9-.1.3 3.4-.4.1-.1-.2c-.1.2-.3.3-.6.3-.6.1-1-.3-1.1-1.2l-.2-2.2h.7zm-2.3.3l.3 2.6 1-.1.1.7-1.8.2-.4-3.4h.8zm-2.3.2c.4 0 .7 0 .9.1l-.3.7c-.2-.1-.3-.2-.6-.1-.4 0-.5.2-.3 1 .1.9.3 1 .6 1s.4-.1.5-.3l.4.6c-.1.1-.3.3-.8.4-.9.1-1.5-.3-1.6-1.5-.1-1.4.4-1.8 1.2-1.9zm54.6 31.8c-5.4-1.4-11.3-2.5-17.7-3.1l-1.1-.1-1.4 4.3c-5-.4-9.5-.6-15.1-.6-5.5 0-9.9.2-14.8.6l-1.4-4.3-1.1.1c-6.2.6-12.1 1.7-17.5 3.1l-6.2-21.2c11-4 24.8-6.5 41.3-6.5 16.4 0 30.2 2.5 41.3 6.5l-6.3 21.2z"/><path class="st0" d="M183.6 32.3c0 3.6 1.2 5 3.9 5 1.4 0 2.1-.4 2.6-.9l-1-1.7c-.4.4-.9.6-1.5.6-.9 0-1.4-.4-1.3-3.1 0-2.5.3-2.8 1.4-2.8.6 0 1.1.2 1.5.6l.9-1.8c-.5-.4-1.4-.7-2.6-.8-2.3-.1-3.9.9-3.9 4.9zM197.6 45.1c0-.6-.3-.9-.9-.9-.4 0-.7.1-.9.2l.2.4c.2-.1.4-.2.7-.2s.4.2.4.5c0 .4-.3.7-1.4 1.5v.5l1.9.1v-.5l-1.3-.1c.9-.6 1.2-1 1.3-1.5zM232.5 24.1c-1-1.5-2.4-1.2-2.4-1.2.2 0 .9.6 1.2.8-.3-.2-1.4-.5-1.4-.5.6 1.9 2.5 1.4 2.5 1.4.6.1 2.9 1.8 2.9 1.8-.4-.6-2.8-2.3-2.8-2.3z"/><path class="st0" d="M229.5 24.1s-.3-2.3-1.7-2.5c0 0 0 .6.7 1.4 0 0-.9-.7-1-1.3 0 0-.4 1.3 1.8 2.6 3.5 1.9 4.3 1.9 4.3 1.9s-3.8-1.5-4.1-2.1zM209.3 39.1l1.3-3.5c.3-.9.5-1.7.6-2.3-.1.6-.2 1.5-.2 2.4v3.8l2.3.4 3.5-9.1-2.3-.6-.8 2.4c-.5 1.5-.7 2.9-.9 3.8.1-1.2.2-2.7.2-3.7v-2.9l-1.9-.3-1 2.7c-.6 1.7-.9 2.8-1.1 3.5 0-.3.3-2.4.3-4v-2.6l-2.4-.4.1 9.7 2.3.7zM191.4 47c.8 0 1.2-.5 1.3-1.5 0-1.1-.4-1.6-1.2-1.6-.7 0-1.2.5-1.3 1.5 0 1.1.5 1.6 1.2 1.6zm-.6-1.6c0-.8.2-1.1.6-1.1s.6.3.6 1.2c0 .8-.2 1.1-.6 1.1-.4-.1-.6-.4-.6-1.2zM204.7 36.3l-3.1-.3.2-2 2.3.3.2-2-2.2-.3.1-1.5 2.8.3.3-2.1-5.3-.5-1 9.5 5.5.6zM193.7 33.5h.2c.8 0 .9.3 1.1 1.2l.5 2.8 2.6.2-.6-2.6c-.2-.9-.5-1.6-1.2-1.9 1-.2 1.7-.8 1.8-2.4.1-1.7-.6-2.8-3.4-3l-3.1-.2-.6 9.6 2.3.2.4-3.9zm.2-3.7h.9c.6 0 .9.3.8 1 0 .8-.3 1.1-.9 1h-.9l.1-2z"/><path class="st0" d="M228.7 21.4c.6-.2 1.6.2 1.6.2-1.2-.2-1.6.2-1.6.2.9 1.2 3 .2 3 .2.6-.1 3.9 2.3 3.9 2.3s-.4-.7-3.8-2.7c-2.1-1.3-3.1-.2-3.1-.2zM217.1 17.5c-1.2.2-1.5.6-1.5.6 1.2.9 3.3-.8 3.3-.8-2.8-1-3.5.5-3.5.5.6-.3 1.7-.3 1.7-.3zM221.1 19.4c.5-.4 1.6-.4 1.6-.4-1.2.2-1.5.6-1.5.6 1.2.8 3.3-1 3.3-1-2.8-.8-3.4.8-3.4.8zM213.6 18s.1 1.7 3 1.8c0 0-1.4-2.4-2.8-2 0 0 .2.5 1.2 1.1 0 0-1-.4-1.4-.9zM218.5 18.3c.5-.3 1.6-.3 1.6-.3-1.2.2-1.5.6-1.5.6 1.2.9 3.3-.9 3.3-.9-2.8-.9-3.4.6-3.4.6zM192.7 16.7c0-.3-.1-.3-.3-.3h-.3v.7h.3c.2 0 .3-.2.3-.4z"/><path class="st0" d="M214.4 17.2c.6-.6 1.2-.4 1.2-.4s-.6-.3-1.1-.5c-.7-.3-1.4.6-1.4.6-.6.7-1 .4-1 .4 1.3 1.1 2.3-.1 2.3-.1z"/><path class="st0" d="M212.2 18.5s.4 1 1.2 1c.6 0 1.3-.1 1.3-.1s-.7 0-1-.8c0 0-.6-1.5-2.2-.9-.1.1.3 0 .7.8zM156.4 17.8c-1.4-.4-2.8 2-2.8 2 2.9-.1 3-1.8 3-1.8-.3.5-1.4.9-1.4.9 1-.6 1.2-1.1 1.2-1.1zM219.5 53c-1.8-.9-2.5 0-2.5 0 .4-.2 1.3.1 1.3.1-.9-.1-1.2.2-1.2.2.7.9 2.4 0 2.4 0 .5-.1 3.2 1.7 3.2 1.7s-.3-.6-3.2-2zM202.4 18v-.6c0 .1-.1.4-.2.6l-.2.6h.4V18zM180.4 18.2c.3 0 .4-.1.4-1.1 0-.8-.2-.9-.5-.9h-.3l.1 1.9.3.1zM173.7 17.2c.2 0 .3-.1.3-.3s-.1-.3-.3-.3h-.3v.6h.3zM223.7 19.9c.5-.3 1.6-.3 1.6-.3-1.2.2-1.5.6-1.5.6 1.2.8 3.3-1 3.3-1-2.8-.9-3.4.7-3.4.7zM216.9 18.8s-.3 1.6 2.5 2.5c0 0-.7-2.7-2.2-2.6 0 0 0 .6.9 1.3 0 0-1-.6-1.2-1.2z"/><path class="st0" d="M226 20.3c.6-.3 1.7 0 1.7 0-1.2 0-1.5.3-1.5.3 1 1.1 3.4-.3 3.4-.3-2.6-1.3-3.6 0-3.6 0zM221.9 21.8s-.8-2.6-2.3-2.6c0 0 0 .6.9 1.3 0 0-1-.6-1.2-1.2 0 .1-.3 1.7 2.6 2.5zM173.4 17.9v.7h.3c.2 0 .3-.1.3-.4 0-.2-.1-.3-.3-.3h-.3zM220.2 55c-.9-1.2-2-.8-2-.8.1 0 .8.4 1 .6-.3-.1-1.1-.3-1.1-.3.6 1.5 2 .9 2 .9.5.1 2.4 1.3 2.4 1.3-.3-.4-2.3-1.7-2.3-1.7zM227.1 23.4s-.9-2.6-2.3-2.6c0 0 0 .6.9 1.3 0 0-1-.6-1.2-1.2 0 .1-.3 1.7 2.6 2.5z"/><path class="st0" d="M224.6 22.3s-1.3-2.5-2.6-2.1c0 0 .1.5 1.1 1.2 0 0-1-.4-1.4-.9 0-.2-.1 1.5 2.9 1.8z"/></svg>