<svg id="Layer_1" xmlns="http://www.w3.org/2000/svg" viewBox="0 0 370 70"><style>.st0{fill:#0c5684}.st1{fill:#8dbe43}</style><path class="st0" d="M149.3 23.4c.8.1 1.3.1 2.1.4 5 1.1 8.2 4.9 8.4 9.9.1 1.1 0 2.3 0 3.6h-16.5c-.4 2.7 1.6 5.3 4.5 5.7 2.3.3 4.2-.1 5.5-2.3.1-.1.3-.3.4-.3h6c-.4.9-.6 1.8-1.1 2.5-1.1 1.8-2.6 3.3-4.7 4-4.3 1.7-8.4 1.4-12.4-1.1-2.3-1.4-3.7-3.5-4.2-6.2-.5-2.9-.5-5.8.4-8.7 1.2-4 4.9-7 9.1-7.4.3 0 .4-.1.8-.1h1.7zm4.2 9.9c.1-2.8-2.1-4.8-5.1-4.8-2.8 0-5.2 2.3-5 4.8h10.1z"/><path class="st1" d="M206 23.1c.9.4 2 .2 3 .2 1.3 0 2.6.1 3.8.1.3 0 .7.3.9.5 2.3 3.8 4.5 7.5 6.7 11.4-2.3 3.8-4.5 7.5-6.7 11.3-.1.2-.4.4-.6.4h-6.6c-.1 0-.1-.1-.3-.1.5-.9 1-1.7 1.6-2.5 1.8-2.8 3.5-5.7 5.3-8.5.3-.5.4-.8 0-1.3-2.2-3.5-4.3-7-6.5-10.4-.3-.3-.4-.7-.6-1.1z"/><path class="st0" d="M189.9 31.5h-5.7c-.1-3.2 1.7-6.2 5-7.2 3.7-1.2 7.5-1.1 11.1.5 2.3 1 3.3 2.9 3.4 5.3.1 3.7.2 7.4.3 11 .1 1.8.1 3.5.1 5.3 0 .2 0 .5-.1.8h-5.3c-.1 0-.4-.3-.5-.5-.1-.6-.3-1.3-.4-2-.6.4-1.1.9-1.6 1.3-2.3 1.8-4.9 2.3-8 1.7-2.7-.5-5-3.3-5-6-.1-4.2 1.8-6.8 5.8-7.7 2.1-.4 4.1-.6 6.2-1 .4-.1.9-.2 1.2-.4.8-.4 1.2-.9 1.1-1.8-.1-.9-.4-1.6-1.3-1.9-1.4-.5-2.8-.6-4.3-.1-1.1.3-1.7 1-2 2.1.1 0 0 .3 0 .6zm7.9 4.7c-2.1.5-4 .9-5.8 1.3-.3.1-.6.1-.9.3-1.4.6-2.1 2.1-1.6 3.7.3 1.2 1.6 2 3 1.9.4 0 .7-.1 1-.1 1.8-.4 3.3-1.1 3.8-3.1.3-1.3.4-2.7.5-4zM167.8 23.5V38c0 1 .1 2 .4 2.9.2.6.7 1.2 1.4 1.4 2.9 1 5.5-.4 6-3.3.1-.9.3-1.7.3-2.6v-12-1h6V47h-5.6v-3c-.3.4-.4.6-.7 1-2.4 3.1-8 3.8-11.1 1.3-1.3-1-2-2.5-2.3-4-.3-1.1-.4-2.3-.4-3.5-.1-4.9 0-9.7 0-14.6 0-.2 0-.4.1-.6l5.9-.1zM228.1 23.5c-2.3 3.7-4.6 7.2-7 10.9-.4-.7-.8-1.3-1.1-1.9-.6-.9-1.1-1.8-1.7-2.8-.1-.3-.1-.7-.1-1 .9-1.6 1.7-3.2 2.6-4.8.1-.2.4-.5.6-.5 2.2.1 4.3.1 6.7.1zM221.1 36.2l7 10.9H221.7c-.4 0-.7-.1-.9-.6-.9-1.5-1.7-2.9-2.6-4.4-.1-.2-.3-.6-.1-.7 1-1.7 1.9-3.3 3-5.2z"/></svg>