<svg id="Layer_1" xmlns="http://www.w3.org/2000/svg" viewBox="0 0 370 70"><style>.st0{fill:#1f90aa}</style><path class="st0" d="M182.1 57.7c-11.6-.2-15.4-12.9-16.4-17.3-8.8-1.8-9-8.7-8.8-10.9.1-1.2 1.8-3.4 3.9-3.4l9.7.1c.8-.1.8-.8.8-1l.1-4.9c-.1-.7-.2-3.7 1.7-5.5.8-.9 2-1.5 3.4-1.5s2.5.5 3.4 1.4c1.8 1.8 1.6 4.9 1.4 7.2-.1.4-.1.8-.1 1.1.1.2.7.3 1.2.3h.2c.6 0 1-.2 1.2-.3-.1-.3-.1-.7-.1-1-.1-2.4-.3-5.4 1.5-7.2.8-.9 2-1.3 3.3-1.3 1.5 0 2.8.5 3.7 1.6 1.8 1.9 1.6 5.1 1.6 5.7l-.1 4.9c0 .7.3.9.9 1l9.5.1c2.1 0 3.7 2.3 3.8 3.4.2 2.2-.3 9.1-9 10.7-1.4 4.1-5.3 16.8-16.8 16.8m-22.3-27.8c-.2 2.6.7 6.9 7.3 7.8l1 .2.2 1.1c.5 2.6 3.4 15.9 13.7 16h.2c10.3-.1 13.4-13.2 13.9-15.7l.3-1 1-.2c6.7-.8 7.5-5 7.5-7.6-.2-.3-.8-.9-1-.9l-9.6-.1c-1.8-.3-3.6-1.5-3.6-3.9l.1-5c.1-.6.1-2.6-.8-3.5-.4-.4-.8-.6-1.5-.7-.8 0-1.1.3-1.3.4-.9 1-.8 3.4-.8 5.1v1.3c0 1-.4 1.7-.8 1.9-1 1-2.7 1.1-3.2 1.1h-.4c-.5 0-2.2-.1-3.2-1.2-.4-.4-.8-1-.8-2 0-.3.1-.8.1-1.2.2-1.8.3-4.2-.7-5.1-.2-.3-.5-.5-1.3-.5-.7 0-1.1.2-1.5.6-.9.9-.9 2.8-.9 3.4l-.1 5.1c-.1 2.4-1.8 3.6-3.4 3.8l-9.6-.1c-.1 0-.7.5-.8.9"/></svg>