<svg id="Layer_1" xmlns="http://www.w3.org/2000/svg" viewBox="0 0 370 70"><style>.st0{fill:#fff}</style><g id="Layer_3"><path class="st0" d="M195.6 13.3c-12.3 0-22.2 9.9-22.2 22.2s9.9 22.2 22.2 22.2c12.3 0 22.2-9.9 22.2-22.2s-10-22.2-22.2-22.2zm3.4 26.2c0 .2-.2.5-.3.5-.4.2-.9.3-1.4.4v-4.2c-.9.3-1.8.5-2.6.8-.4.1-.5.5-.5.9v1.6c0 .4-.2.6-.5.7-.4.1-.8.1-1.3.2v-8c.1-1.2 1.6-2.1 4-1.9.7 0 1.3.3 1.9.7.5.3.8.8.8 1.4-.1 2.2-.1 4.5-.1 6.9zm7.2.4c-.1.2-.3.4-.5.4h-5.4c-.4 0-.3 0-.3-.3 0-.9-.1-1.9 0-2.8s.8-1.5 1.6-1.8c.7-.3 1.4-.5 2.2-.6 1.3-.3 1.1-.9 1.1-2 0-.3-.3-.5-.5-.6-.7-.3-1.3-.3-2 0-.4.2-.5.6-.5 1s-.2.6-.6.7l-1.2.3v-1.8c.1-.8.6-1.3 1.4-1.6 1.3-.5 2.6-.5 3.8 0 1 .4 1.4 1.1 1.4 2.1V34c0 1.1-.5 1.9-1.6 2.3-.8.3-1.6.5-2.4.7-.7.2-.9.5-.9 1.3 0 .5 0 .5.5.5h4.5c-.3.3-.4.7-.6 1.1zm5.5.4c-.8.1-1.7 0-2.6-.2-1.1-.3-1.6-1.1-1.6-2.2v-4.8c0-1.6.8-2.3 2-2.6 1.1-.3 2.1-.3 3.1.1 1.2.4 1.7 1.3 1.6 2.5 0 .2-.3.5-.4.6-.4.2-.8.2-1.4.4v-.9c0-.8-.2-1.1-1-1.2h-.4c-1.3 0-1.8.4-1.7 1.5v4.2c0 .6.2 1 .8 1.1.5.1.9.1 1.4 0 .7-.1.9-.4.8-1.1 0-.6 0-.8.8-1 1-.3 1-.3 1 .8.1 1.8-.7 2.6-2.4 2.8z"/><path class="st0" d="M196.5 32.1c-.5-.1-1.1-.1-1.6 0-.4 0-.7.4-.7.8v2.4c.6-.2 1.2-.3 1.8-.5 1.2-.3 1.3-.5 1.3-1.8-.1-.4-.3-.8-.8-.9z"/></g></svg>