<svg id="Layer_1" xmlns="http://www.w3.org/2000/svg" viewBox="0 0 370 70"><style>.st0{fill:#fff}</style><path class="st0" d="M167 43c2.3 0 4.4-.9 5.9-2.8l3.1 3.2c-2.5 2.8-5.4 4.3-8.8 4.3-3.4 0-6.2-1-8.4-3.2s-3.2-4.8-3.2-8.1 1.2-6 3.4-8.1c2.2-2.2 5-3.2 8.2-3.2 3.5 0 6.6 1.3 9 4.1l-3.2 3.4c-1.6-1.9-3.5-2.9-5.7-2.9-1.9 0-3.4.6-4.7 1.8-1.3 1.2-1.9 2.8-1.9 4.8s.6 3.7 1.9 4.8c1.1 1.2 2.6 1.9 4.4 1.9zM192.4 25.5h4.8v21.9h-4.8v-8.7h-8.7v8.7h-4.8V25.5h4.8v9.1h8.7v-9.1zM207.6 41.7c.9 1 1.9 1.5 3.2 1.5 1.3 0 2.5-.5 3.2-1.5.7-1 1.2-2.3 1.2-4.1V25.4h4.8v12.2c0 3.2-.9 5.6-2.6 7.4-1.8 1.8-4 2.5-6.8 2.5s-5-.9-6.8-2.5c-1.8-1.8-2.6-4.1-2.6-7.4V25.4h4.8v12c.5 1.8.9 3.3 1.6 4.3zM234.2 29.6v17.6h-4.8V29.6h-6.2v-4.2h17.3v4.3h-6.3v-.1zM258.9 25.4v4.4H248v4.4h9.9v4.1H248V43h11.3v4.3h-16.2V25.4h15.8z"/><g><path class="st0" d="M132.9 33.5c-2.3 0-4.3 1.9-4.3 4.3s1.9 4.3 4.3 4.3 4.3-1.9 4.3-4.3c-.2-2.5-2.1-4.3-4.3-4.3zm0 7.2c-1.6 0-2.9-1.3-2.9-2.9 0-1.6 1.3-2.9 2.9-2.9s2.9 1.3 2.9 2.9c-.1 1.4-1.4 2.9-2.9 2.9zM134.4 29.4h3.8v1.9h-3.8z"/><path class="st0" d="M132.9 19.5c-9.4 0-16.9 7.5-16.9 16.8S123.5 53 132.8 53s16.7-7.6 16.7-16.8c.1-9.2-7.4-16.7-16.6-16.7zm8.1 24.7H125.1c-2.9 0-5.3-2.3-5.3-5.3 0-2.5 1.8-4.6 4.1-5.1.2-2 1.9-3.7 4-3.7 1.2 0 2.2.5 2.9 1.2.9-2.3 3.1-4 5.7-4 3.4 0 6.2 2.8 6.2 6.2v.3c2 .7 3.5 2.8 3.5 5.1-.2 2.7-2.4 4.9-5.2 5.3z"/></g></svg>